/vscmnt/brussel_pixiu_data/_data_brussel/112/vsc11236/PredSimResults/SUBJ07mtu3D/weighted-expIG/worker_03.mot
version=1
nRows=5
nColumns=50
inDegrees=yes
endheader
                time	         pelvis_tilt	         pelvis_list	     pelvis_rotation	           pelvis_tx	           pelvis_ty	           pelvis_tz	       hip_flexion_r	     hip_adduction_r	      hip_rotation_r	        knee_angle_r	       ankle_angle_r	         mtp_angle_r	       hip_flexion_l	     hip_adduction_l	      hip_rotation_l	        knee_angle_l	       ankle_angle_l	         mtp_angle_l	    lumbar_extension	      lumbar_bending	     lumbar_rotation	 ercspn_r/activation	 intobl_r/activation	 extobl_r/activation	    abd_r/activation	    add_r/activation	hamstrings_r/activation	bifemsh_r/activation	glut_max_r/activation	iliopsoas_r/activation	rect_fem_r/activation	  vasti_r/activation	gastroc_r/activation	 soleus_r/activation	tib_ant_r/activation	 ercspn_l/activation	 intobl_l/activation	 extobl_l/activation	    abd_l/activation	    add_l/activation	hamstrings_l/activation	bifemsh_l/activation	glut_max_l/activation	iliopsoas_l/activation	rect_fem_l/activation	  vasti_l/activation	gastroc_l/activation	 soleus_l/activation	tib_ant_l/activation	
          1.13003268	         -6.92651770	         -4.05588433	          9.67724242	          1.40124052	          0.84328470	         -0.01377247	         31.83639294	         -0.30594517	         -7.71557571	         -3.38316676	          7.54940345	          0.24785802	        -12.60637729	         -4.64481249	          5.03466765	         -7.19118753	          8.37762070	         28.36069063	         -6.12588592	          2.25319643	         -3.66071177	          0.10015235	          0.18268168	          0.02814058	          0.01188342	          0.14559230	          0.07189978	          0.20635322	          0.01000003	          0.08575744	          0.01000005	          0.01000001	          0.02750546	          0.01000015	          0.27688508	          0.03612955	          0.01000000	          0.01000002	          0.03346428	          0.05747713	          0.03127720	          0.14610271	          0.02816061	          0.40730786	          0.01000005	          0.01000005	          0.28411292	          0.27048069	          0.02036640	
          1.14133301	         -6.99632135	         -3.90050613	          9.56996603	          1.41782423	          0.84135474	         -0.01350537	         32.02044989	         -0.12694914	         -7.05177764	         -5.34502389	          7.21118447	          0.24745814	        -12.62907876	         -4.49517325	          4.51945940	         -9.18083548	          7.65562183	         30.16281594	         -5.93905682	          2.71065075	         -3.72731707	          0.08427930	          0.15372864	          0.02368061	          0.01000003	          0.22076516	          0.06050447	          0.17364851	          0.08642604	          0.07216582	          0.01000007	          0.01000001	          0.02490869	          0.01558693	          0.28185514	          0.10425434	          0.01000001	          0.01000007	          0.02816056	          0.10725228	          0.02632012	          0.12294703	          0.02369746	          0.42702892	          0.01000005	          0.01000030	          0.23908411	          0.25157889	          0.01713855	
          1.15263333	         -7.04680271	         -3.75194113	          9.40174138	          1.43473376	          0.83957717	         -0.01323060	         31.97855458	          0.01406409	         -6.32535872	         -7.19276074	          6.86326595	          0.23307039	        -12.45981187	         -4.33292712	          3.94463849	        -11.59947028	          6.82063373	         31.88995259	         -5.73126808	          3.19904185	         -3.76464234	          0.07443625	          0.12936436	          0.01992749	          0.07600820	          0.20500824	          0.06571950	          0.14612716	          0.10688461	          0.06072832	          0.01000001	          0.01000000	          0.02096094	          0.01311657	          0.32899645	          0.13207472	          0.01000000	          0.01000002	          0.02369742	          0.09859216	          0.02214871	          0.10346127	          0.01994167	          0.40396370	          0.01000003	          0.01000000	          0.20119188	          0.22182085	          0.01442228	
          1.16393366	         -7.08154238	         -3.60259225	          9.17395513	          1.45173305	          0.83813860	         -0.01285571	         31.73722064	          0.17259911	         -5.66402910	         -8.69727333	          6.40606493	          0.21967339	        -12.02438383	         -4.16038674	          3.32733669	        -14.52449776	          5.81645417	         33.42346166	         -5.52743594	          3.69094296	         -3.77486486	          0.08976416	          0.10886152	          0.01676920	          0.12741789	          0.20626308	          0.05914700	          0.12296761	          0.14633879	          0.05110354	          0.01000002	          0.01000000	          0.01763886	          0.01103774	          0.35606910	          0.15890743	          0.01000000	          0.01000001	          0.01994163	          0.10467947	          0.01863841	          0.08706380	          0.01678113	          0.37948827	          0.01000002	          0.01000000	          0.16930515	          0.18666466	          0.01213650	
          1.17523399	         -7.10144131	         -3.45714185	          8.89262776	          1.46858069	          0.83719657	         -0.01238476	         31.40602171	          0.35577975	         -5.08525184	        -10.05780602	          6.01354515	          0.20454957	        -11.27741937	         -3.98961514	          2.66885652	        -17.98239882	          4.64211919	         34.50013694	         -5.34952429	          4.19079384	         -3.75641137	          0.08643565	          0.09160816	          0.01411147	          0.15545841	          0.19695090	          0.04977295	          0.10347860	          0.16762720	          0.04300419	          0.01000002	          0.02999766	          0.01484330	          0.01000009	          0.37471861	          0.18863757	          0.01000000	          0.01000001	          0.01678110	          0.10838080	          0.01568444	          0.07326515	          0.01412151	          0.32856964	          0.01000001	          0.01000000	          0.14247213	          0.15708035	          0.01021300	
